<?xml version="1.0" encoding="UTF-8" standalone="no"?>
<!DOCTYPE svg PUBLIC "-//W3C//DTD SVG 1.1//EN"
 "http://www.w3.org/Graphics/SVG/1.1/DTD/svg11.dtd">
<!-- Generated by graphviz version 2.40.1 (20161225.0304)
 -->
<!-- Title: %3 Pages: 1 -->
<svg width="872pt" height="404pt"
 viewBox="0.00 0.00 871.88 404.00" xmlns="http://www.w3.org/2000/svg" xmlns:xlink="http://www.w3.org/1999/xlink">
<g id="graph0" class="graph" transform="scale(1 1) rotate(0) translate(4 400)">
<title>%3</title>
<polygon fill="#ffffff" stroke="transparent" points="-4,4 -4,-400 867.8765,-400 867.8765,4 -4,4"/>
<!-- [root] aws_instance.secondserver -->
<g id="node1" class="node">
<title>[root] aws_instance.secondserver</title>
<polygon fill="none" stroke="#000000" points="167.3268,-252 -.109,-252 -.109,-216 167.3268,-216 167.3268,-252"/>
<text text-anchor="middle" x="83.6089" y="-229.8" font-family="Times,serif" font-size="14.00" fill="#000000">aws_instance.secondserver</text>
</g>
<!-- [root] aws_subnet.subnet2 -->
<g id="node4" class="node">
<title>[root] aws_subnet.subnet2</title>
<polygon fill="none" stroke="#000000" points="249.9854,-180 121.2324,-180 121.2324,-144 249.9854,-144 249.9854,-180"/>
<text text-anchor="middle" x="185.6089" y="-157.8" font-family="Times,serif" font-size="14.00" fill="#000000">aws_subnet.subnet2</text>
</g>
<!-- [root] aws_instance.secondserver&#45;&gt;[root] aws_subnet.subnet2 -->
<g id="edge1" class="edge">
<title>[root] aws_instance.secondserver&#45;&gt;[root] aws_subnet.subnet2</title>
<path fill="none" stroke="#000000" d="M109.3478,-215.8314C122.1526,-206.7927 137.7998,-195.7476 151.5808,-186.0198"/>
<polygon fill="#000000" stroke="#000000" points="153.7269,-188.7891 159.8782,-180.1628 149.6901,-183.0703 153.7269,-188.7891"/>
</g>
<!-- [root] data.aws_ami.ubuntu -->
<g id="node6" class="node">
<title>[root] data.aws_ami.ubuntu</title>
<polygon fill="none" stroke="#000000" points="155.0815,-108 20.1362,-108 20.1362,-72 155.0815,-72 155.0815,-108"/>
<text text-anchor="middle" x="87.6089" y="-85.8" font-family="Times,serif" font-size="14.00" fill="#000000">data.aws_ami.ubuntu</text>
</g>
<!-- [root] aws_instance.secondserver&#45;&gt;[root] data.aws_ami.ubuntu -->
<g id="edge2" class="edge">
<title>[root] aws_instance.secondserver&#45;&gt;[root] data.aws_ami.ubuntu</title>
<path fill="none" stroke="#000000" d="M84.1155,-215.7623C84.7977,-191.201 86.0187,-147.2474 86.8213,-118.3541"/>
<polygon fill="#000000" stroke="#000000" points="90.3273,-118.183 87.1064,-108.0896 83.33,-117.9885 90.3273,-118.183"/>
</g>
<!-- [root] aws_security_group.subnetsecurity -->
<g id="node2" class="node">
<title>[root] aws_security_group.subnetsecurity</title>
<polygon fill="none" stroke="#000000" points="398.23,-252 184.9878,-252 184.9878,-216 398.23,-216 398.23,-252"/>
<text text-anchor="middle" x="291.6089" y="-229.8" font-family="Times,serif" font-size="14.00" fill="#000000">aws_security_group.subnetsecurity</text>
</g>
<!-- [root] aws_vpc.environment&#45;example&#45;two -->
<g id="node5" class="node">
<title>[root] aws_vpc.environment&#45;example&#45;two</title>
<polygon fill="none" stroke="#000000" points="392.0991,-108 175.1187,-108 175.1187,-72 392.0991,-72 392.0991,-108"/>
<text text-anchor="middle" x="283.6089" y="-85.8" font-family="Times,serif" font-size="14.00" fill="#000000">aws_vpc.environment&#45;example&#45;two</text>
</g>
<!-- [root] aws_security_group.subnetsecurity&#45;&gt;[root] aws_vpc.environment&#45;example&#45;two -->
<g id="edge3" class="edge">
<title>[root] aws_security_group.subnetsecurity&#45;&gt;[root] aws_vpc.environment&#45;example&#45;two</title>
<path fill="none" stroke="#000000" d="M290.5957,-215.7623C289.2312,-191.201 286.7893,-147.2474 285.1841,-118.3541"/>
<polygon fill="#000000" stroke="#000000" points="288.6633,-117.88 284.6139,-108.0896 281.674,-118.2684 288.6633,-117.88"/>
</g>
<!-- [root] aws_subnet.subnet1 -->
<g id="node3" class="node">
<title>[root] aws_subnet.subnet1</title>
<polygon fill="none" stroke="#000000" points="544.9854,-252 416.2324,-252 416.2324,-216 544.9854,-216 544.9854,-252"/>
<text text-anchor="middle" x="480.6089" y="-229.8" font-family="Times,serif" font-size="14.00" fill="#000000">aws_subnet.subnet1</text>
</g>
<!-- [root] aws_subnet.subnet1&#45;&gt;[root] aws_vpc.environment&#45;example&#45;two -->
<g id="edge4" class="edge">
<title>[root] aws_subnet.subnet1&#45;&gt;[root] aws_vpc.environment&#45;example&#45;two</title>
<path fill="none" stroke="#000000" d="M455.6587,-215.7623C420.4293,-190.0108 356.0365,-142.942 316.803,-114.2637"/>
<polygon fill="#000000" stroke="#000000" points="318.4951,-111.1652 308.3565,-108.0896 314.3642,-116.8165 318.4951,-111.1652"/>
</g>
<!-- [root] aws_subnet.subnet2&#45;&gt;[root] aws_vpc.environment&#45;example&#45;two -->
<g id="edge5" class="edge">
<title>[root] aws_subnet.subnet2&#45;&gt;[root] aws_vpc.environment&#45;example&#45;two</title>
<path fill="none" stroke="#000000" d="M210.3384,-143.8314C222.525,-134.8779 237.3912,-123.9558 250.54,-114.2955"/>
<polygon fill="#000000" stroke="#000000" points="252.9007,-116.9042 258.8873,-108.1628 248.7561,-111.263 252.9007,-116.9042"/>
</g>
<!-- [root] provider.aws -->
<g id="node10" class="node">
<title>[root] provider.aws</title>
<polygon fill="none" stroke="#000000" points="186.6089,-36 108.0005,-18 186.6089,0 265.2172,-18 186.6089,-36"/>
<text text-anchor="middle" x="186.6089" y="-13.8" font-family="Times,serif" font-size="14.00" fill="#000000">provider.aws</text>
</g>
<!-- [root] aws_vpc.environment&#45;example&#45;two&#45;&gt;[root] provider.aws -->
<g id="edge6" class="edge">
<title>[root] aws_vpc.environment&#45;example&#45;two&#45;&gt;[root] provider.aws</title>
<path fill="none" stroke="#000000" d="M259.1317,-71.8314C245.2814,-61.5507 227.9342,-48.6744 213.6788,-38.0931"/>
<polygon fill="#000000" stroke="#000000" points="215.377,-34.9949 205.2612,-31.845 211.2049,-40.6157 215.377,-34.9949"/>
</g>
<!-- [root] data.aws_ami.ubuntu&#45;&gt;[root] provider.aws -->
<g id="edge7" class="edge">
<title>[root] data.aws_ami.ubuntu&#45;&gt;[root] provider.aws</title>
<path fill="none" stroke="#000000" d="M112.5908,-71.8314C126.86,-61.4537 144.7659,-48.4313 159.3918,-37.7943"/>
<polygon fill="#000000" stroke="#000000" points="161.5432,-40.5574 167.572,-31.845 157.426,-34.8962 161.5432,-40.5574"/>
</g>
<!-- [root] google_compute_instance.firstserver -->
<g id="node7" class="node">
<title>[root] google_compute_instance.firstserver</title>
<polygon fill="none" stroke="#000000" points="816.2752,-252 594.9426,-252 594.9426,-216 816.2752,-216 816.2752,-252"/>
<text text-anchor="middle" x="705.6089" y="-229.8" font-family="Times,serif" font-size="14.00" fill="#000000">google_compute_instance.firstserver</text>
</g>
<!-- [root] google_compute_subnetwork.dev&#45;subnet -->
<g id="node9" class="node">
<title>[root] google_compute_subnetwork.dev&#45;subnet</title>
<polygon fill="none" stroke="#000000" points="828.6718,-180 582.546,-180 582.546,-144 828.6718,-144 828.6718,-180"/>
<text text-anchor="middle" x="705.6089" y="-157.8" font-family="Times,serif" font-size="14.00" fill="#000000">google_compute_subnetwork.dev&#45;subnet</text>
</g>
<!-- [root] google_compute_instance.firstserver&#45;&gt;[root] google_compute_subnetwork.dev&#45;subnet -->
<g id="edge8" class="edge">
<title>[root] google_compute_instance.firstserver&#45;&gt;[root] google_compute_subnetwork.dev&#45;subnet</title>
<path fill="none" stroke="#000000" d="M705.6089,-215.8314C705.6089,-208.131 705.6089,-198.9743 705.6089,-190.4166"/>
<polygon fill="#000000" stroke="#000000" points="709.109,-190.4132 705.6089,-180.4133 702.109,-190.4133 709.109,-190.4132"/>
</g>
<!-- [root] google_compute_network.our_development_network -->
<g id="node8" class="node">
<title>[root] google_compute_network.our_development_network</title>
<polygon fill="none" stroke="#000000" points="863.6444,-108 547.5734,-108 547.5734,-72 863.6444,-72 863.6444,-108"/>
<text text-anchor="middle" x="705.6089" y="-85.8" font-family="Times,serif" font-size="14.00" fill="#000000">google_compute_network.our_development_network</text>
</g>
<!-- [root] provider.google -->
<g id="node11" class="node">
<title>[root] provider.google</title>
<polygon fill="none" stroke="#000000" points="705.6089,-36 612.3225,-18 705.6089,0 798.8953,-18 705.6089,-36"/>
<text text-anchor="middle" x="705.6089" y="-13.8" font-family="Times,serif" font-size="14.00" fill="#000000">provider.google</text>
</g>
<!-- [root] google_compute_network.our_development_network&#45;&gt;[root] provider.google -->
<g id="edge9" class="edge">
<title>[root] google_compute_network.our_development_network&#45;&gt;[root] provider.google</title>
<path fill="none" stroke="#000000" d="M705.6089,-71.8314C705.6089,-64.131 705.6089,-54.9743 705.6089,-46.4166"/>
<polygon fill="#000000" stroke="#000000" points="709.109,-46.4132 705.6089,-36.4133 702.109,-46.4133 709.109,-46.4132"/>
</g>
<!-- [root] google_compute_subnetwork.dev&#45;subnet&#45;&gt;[root] google_compute_network.our_development_network -->
<g id="edge10" class="edge">
<title>[root] google_compute_subnetwork.dev&#45;subnet&#45;&gt;[root] google_compute_network.our_development_network</title>
<path fill="none" stroke="#000000" d="M705.6089,-143.8314C705.6089,-136.131 705.6089,-126.9743 705.6089,-118.4166"/>
<polygon fill="#000000" stroke="#000000" points="709.109,-118.4132 705.6089,-108.4133 702.109,-118.4133 709.109,-118.4132"/>
</g>
<!-- [root] meta.count&#45;boundary (EachMode fixup) -->
<g id="node12" class="node">
<title>[root] meta.count&#45;boundary (EachMode fixup)</title>
<ellipse fill="none" stroke="#000000" cx="430.6089" cy="-306" rx="174.7874" ry="18"/>
<text text-anchor="middle" x="430.6089" y="-301.8" font-family="Times,serif" font-size="14.00" fill="#000000">[root] meta.count&#45;boundary (EachMode fixup)</text>
</g>
<!-- [root] meta.count&#45;boundary (EachMode fixup)&#45;&gt;[root] aws_instance.secondserver -->
<g id="edge11" class="edge">
<title>[root] meta.count&#45;boundary (EachMode fixup)&#45;&gt;[root] aws_instance.secondserver</title>
<path fill="none" stroke="#000000" d="M352.7353,-289.8418C300.8168,-279.0691 232.2843,-264.8491 177.371,-253.455"/>
<polygon fill="#000000" stroke="#000000" points="177.7856,-249.9665 167.283,-251.3618 176.3634,-256.8205 177.7856,-249.9665"/>
</g>
<!-- [root] meta.count&#45;boundary (EachMode fixup)&#45;&gt;[root] aws_security_group.subnetsecurity -->
<g id="edge12" class="edge">
<title>[root] meta.count&#45;boundary (EachMode fixup)&#45;&gt;[root] aws_security_group.subnetsecurity</title>
<path fill="none" stroke="#000000" d="M396.2493,-288.2022C377.927,-278.7115 355.1828,-266.9304 335.5837,-256.7783"/>
<polygon fill="#000000" stroke="#000000" points="337.028,-253.5848 326.5387,-252.0931 333.8083,-259.8004 337.028,-253.5848"/>
</g>
<!-- [root] meta.count&#45;boundary (EachMode fixup)&#45;&gt;[root] aws_subnet.subnet1 -->
<g id="edge13" class="edge">
<title>[root] meta.count&#45;boundary (EachMode fixup)&#45;&gt;[root] aws_subnet.subnet1</title>
<path fill="none" stroke="#000000" d="M443.226,-287.8314C448.9261,-279.6232 455.7752,-269.7606 462.0448,-260.7323"/>
<polygon fill="#000000" stroke="#000000" points="464.9927,-262.6234 467.8219,-252.4133 459.2431,-258.6306 464.9927,-262.6234"/>
</g>
<!-- [root] meta.count&#45;boundary (EachMode fixup)&#45;&gt;[root] google_compute_instance.firstserver -->
<g id="edge14" class="edge">
<title>[root] meta.count&#45;boundary (EachMode fixup)&#45;&gt;[root] google_compute_instance.firstserver</title>
<path fill="none" stroke="#000000" d="M494.7371,-289.2101C534.1149,-278.9002 584.8469,-265.6177 626.6818,-254.6645"/>
<polygon fill="#000000" stroke="#000000" points="627.774,-257.9966 636.5614,-252.0779 626.001,-251.2249 627.774,-257.9966"/>
</g>
<!-- [root] provider.aws (close) -->
<g id="node13" class="node">
<title>[root] provider.aws (close)</title>
<ellipse fill="none" stroke="#000000" cx="133.6089" cy="-306" rx="104.3276" ry="18"/>
<text text-anchor="middle" x="133.6089" y="-301.8" font-family="Times,serif" font-size="14.00" fill="#000000">[root] provider.aws (close)</text>
</g>
<!-- [root] provider.aws (close)&#45;&gt;[root] aws_instance.secondserver -->
<g id="edge15" class="edge">
<title>[root] provider.aws (close)&#45;&gt;[root] aws_instance.secondserver</title>
<path fill="none" stroke="#000000" d="M120.9918,-287.8314C115.2917,-279.6232 108.4426,-269.7606 102.173,-260.7323"/>
<polygon fill="#000000" stroke="#000000" points="104.9747,-258.6306 96.3959,-252.4133 99.2251,-262.6234 104.9747,-258.6306"/>
</g>
<!-- [root] provider.aws (close)&#45;&gt;[root] aws_security_group.subnetsecurity -->
<g id="edge16" class="edge">
<title>[root] provider.aws (close)&#45;&gt;[root] aws_security_group.subnetsecurity</title>
<path fill="none" stroke="#000000" d="M170.6529,-289.1192C192.1373,-279.3288 219.454,-266.8807 242.6894,-256.2924"/>
<polygon fill="#000000" stroke="#000000" points="244.3867,-259.3653 252.0351,-252.0336 241.484,-252.9955 244.3867,-259.3653"/>
</g>
<!-- [root] provider.aws (close)&#45;&gt;[root] aws_subnet.subnet1 -->
<g id="edge17" class="edge">
<title>[root] provider.aws (close)&#45;&gt;[root] aws_subnet.subnet1</title>
<path fill="none" stroke="#000000" d="M205.0518,-292.8756C258.076,-282.9141 332.3765,-268.4941 406.2195,-252.263"/>
<polygon fill="#000000" stroke="#000000" points="407.1518,-255.6415 416.161,-250.0661 405.6413,-248.8064 407.1518,-255.6415"/>
</g>
<!-- [root] provider.google (close) -->
<g id="node14" class="node">
<title>[root] provider.google (close)</title>
<ellipse fill="none" stroke="#000000" cx="737.6089" cy="-306" rx="114.4592" ry="18"/>
<text text-anchor="middle" x="737.6089" y="-301.8" font-family="Times,serif" font-size="14.00" fill="#000000">[root] provider.google (close)</text>
</g>
<!-- [root] provider.google (close)&#45;&gt;[root] google_compute_instance.firstserver -->
<g id="edge18" class="edge">
<title>[root] provider.google (close)&#45;&gt;[root] google_compute_instance.firstserver</title>
<path fill="none" stroke="#000000" d="M729.5339,-287.8314C725.9987,-279.8771 721.7729,-270.369 717.8632,-261.5723"/>
<polygon fill="#000000" stroke="#000000" points="721.0523,-260.1299 713.7926,-252.4133 714.6557,-262.9729 721.0523,-260.1299"/>
</g>
<!-- [root] root -->
<g id="node15" class="node">
<title>[root] root</title>
<ellipse fill="none" stroke="#000000" cx="430.6089" cy="-378" rx="46.8976" ry="18"/>
<text text-anchor="middle" x="430.6089" y="-373.8" font-family="Times,serif" font-size="14.00" fill="#000000">[root] root</text>
</g>
<!-- [root] root&#45;&gt;[root] meta.count&#45;boundary (EachMode fixup) -->
<g id="edge19" class="edge">
<title>[root] root&#45;&gt;[root] meta.count&#45;boundary (EachMode fixup)</title>
<path fill="none" stroke="#000000" d="M430.6089,-359.8314C430.6089,-352.131 430.6089,-342.9743 430.6089,-334.4166"/>
<polygon fill="#000000" stroke="#000000" points="434.109,-334.4132 430.6089,-324.4133 427.109,-334.4133 434.109,-334.4132"/>
</g>
<!-- [root] root&#45;&gt;[root] provider.aws (close) -->
<g id="edge20" class="edge">
<title>[root] root&#45;&gt;[root] provider.aws (close)</title>
<path fill="none" stroke="#000000" d="M390.8623,-368.3645C343.1968,-356.8092 262.44,-337.2318 204.1065,-323.0903"/>
<polygon fill="#000000" stroke="#000000" points="204.7615,-319.6478 194.2184,-320.6932 203.1123,-326.4508 204.7615,-319.6478"/>
</g>
<!-- [root] root&#45;&gt;[root] provider.google (close) -->
<g id="edge21" class="edge">
<title>[root] root&#45;&gt;[root] provider.google (close)</title>
<path fill="none" stroke="#000000" d="M470.7438,-368.5873C519.6262,-357.123 603.1637,-337.5311 663.7752,-323.316"/>
<polygon fill="#000000" stroke="#000000" points="664.7383,-326.6852 673.6749,-320.9943 663.1399,-319.8701 664.7383,-326.6852"/>
</g>
</g>
</svg>
